# AST/ASF file generated using VICON BodyLanguage
# -----------------------------------------------
:version 1.10
:name VICON
:units
  mass 1.0
  length 0.45
  angle deg
:documentation
   .ast/.asf automatically generated from VICON data using
   VICON BodyBuilder and BodyLanguage model FoxedUp or BRILLIANT.MOD
:root
   order TX TY TZ RX RY RZ
   axis XYZ
   position 0 0 0  
   orientation 0 0 0 
:bonedata
  begin
     id 1 
     name lhipjoint
     direction 0.610259 -0.730986 0.305356 
     length 2.50941 
     axis 0 0 0  XYZ
  end
  begin
     id 2 
     name lfemur
     direction 0.34202 -0.939693 0  
     length 7.48822  
     axis 0 0 20  XYZ
    dof rx ry rz
    limits (-160.0 20.0)
           (-70.0 70.0)
           (-60.0 70.0)
  end
  begin
     id 3 
     name ltibia
     direction 0.34202 -0.939693 0   
     length 7.60141   
     axis 0 0 20   XYZ
    dof rx
    limits (-10.0 170.0)
  end
  begin
     id 4 
     name lfoot
     direction 0.0673488 -0.185039 0.980421   
     length 2.04049   
     axis -90 7.62852e-016 20   XYZ
    dof rx rz
    limits (-45.0 90.0)
           (-70.0 20.0)
  end
  begin
     id 5 
     name ltoes
     direction 1.5356e-011 -4.21729e-011 1   
     length 1.02897   
     axis -90 7.62852e-016 20   XYZ
    dof rx
    limits (-90.0 20.0)
  end
  begin
     id 6 
     name rhipjoint
     direction -0.57612 -0.754205 0.315056   
     length 2.43216  
     axis 0 0 0  XYZ 
  end
  begin
     id 7 
     name rfemur
     direction -0.34202 -0.939693 0   
     length 7.42799   
     axis 0 0 -20   XYZ
    dof rx ry rz
    limits (-160.0 20.0)
           (-70.0 70.0)
           (-70.0 60.0)
  end
  begin
     id 8 
     name rtibia
     direction -0.34202 -0.939693 0   
     length 7.69484   
     axis 0 0 -20   XYZ
    dof rx
    limits (-10.0 170.0)
 end
 begin
     id 9 
     name rfoot
     direction -0.111837 -0.30727 0.945028   
     length 2.15769  
     axis -90 -7.62852e-016 -20   XYZ
    dof rx rz
    limits (-45.0 90.0)
           (-20.0 70.0)
  end
  begin
     id 10 
     name rtoes
     direction -1.53539e-011 -4.21878e-011 1   
     length 1.07391   
     axis -90 -7.62852e-016 -20   XYZ
    dof rx
    limits (-90.0 20.0)
  end
  begin
     id 11 
     name lowerback
     direction 0.00552624 0.990109 -0.140195   
     length 2.12403   
     axis 0 0 0   XYZ
    dof rx ry rz
    limits (-20.0 45.0)
           (-30.0 30.0)
           (-30.0 30.0)
  end
  begin
     id 12 
     name upperback
     direction 0.00361898 0.999976 -0.00584723   
     length 2.13232   
     axis 0 0 0   XYZ
    dof rx ry rz
    limits (-20.0 45.0)
           (-30.0 30.0)
           (-30.0 30.0)
  end
  begin
     id 13 
     name thorax
     direction -0.000331275 0.998253 0.0590847   
     length 2.17688   
     axis 0 0 0   XYZ
    dof rx ry rz
    limits (-20.0 45.0)
           (-30.0 30.0)
           (-30.0 30.0)
  end
  begin
     id 14 
     name lowerneck
     direction -0.0561561 0.979832 0.19177   
     length 1.64159   
     axis 0 0 0   XYZ
    dof rx ry rz
    limits (-20.0 45.0)
           (-30.0 30.0)
           (-30.0 30.0)
  end
  begin
     id 15 
     name upperneck
     direction 0.0827153 0.979385 -0.184293   
     length 1.68939   
     axis 0 0 0   XYZ
    dof rx ry rz
    limits (-20.0 45.0)
           (-30.0 30.0)
           (-30.0 30.0)
  end
  begin
     id 16
     name head
     direction 0.0278583 0.995936 -0.0856488  
     length 1.70207  
     axis 0 0 0   XYZ
    dof rx ry rz
    limits (-20.0 45.0)
           (-30.0 30.0)
           (-30.0 30.0)
  end
  begin
     id 17 
     name lclavicle
     direction 0.950993 0.301131 -0.0702275  
     length 3.41652  
     axis 0 0 0   XYZ
    dof ry rz
    limits (-20.0 10.0)
           (0.0 20.0)
  end
  begin
     id 18 
     name lhumerus
     direction 1 -4.48981e-011 -3.9662e-029   
     length 5.32955   
     axis 180 -30 -90   XYZ
    dof rx ry rz
    limits (-60.0 90.0)
           (-90.0 90.0)
           (-90.0 90.0)
  end
  begin
     id 19
     name lradius
     direction 1 -4.48925e-011 -9.0549e-027   
     length 3.69232   
     axis 180 -30 -90   XYZ
    dof rx
    limits (-10.0 170.0)
  end
  begin
     id 20
     name lwrist
     direction 1 -4.49007e-011 -1.49005e-026   
     length 1.84616   
     axis 9.0955e-015 90 90   XYZ
    dof ry
    limits (-180.0 0.0)
 end
  begin
     id 21 
     name lhand
     direction 1 -4.49016e-011 -2.98023e-026   
     length 0.536598   
     axis 1.90115e-014 90 90   XYZ
    dof rx rz
    limits (-90.0 90.0)
           (-45.0 45.0)
  end
  begin
     id 22 
     name lfingers
     direction 1 -4.48924e-011 -5.9578e-026   
     length 0.432619   
     axis 3.80223e-014 90 90   XYZ
    dof rx
    limits (0.0 90.0)
  end
  begin
     id 23
     name lthumb
     direction 0.707107 -6.34947e-011 0.707107   
     length 0.621157   
     axis -90 45 -3.84942e-014   XYZ
    dof rx rz
    limits (-45.0 45.0)
           (-45.0 45.0)
  end
  begin
     id 24 
     name rclavicle
     direction -0.955495 0.276497 -0.102848   
     length 3.36357  
     axis 0 0 0   XYZ 
    dof ry rz
    limits (-10.0 20.0)
           (-20.0 0.0)
  end
  begin
     id 25 
     name rhumerus
     direction -1 -4.48961e-011 3.30983e-027  
     length 5.23431   
     axis 180 30 90   XYZ
    dof rx ry rz
    limits (-90.0 60.0)
           (-90.0 90.0)
           (-90.0 90.0)
  end
  begin
     id 26 
     name rradius
     direction -1 -4.48965e-011 -6.63263e-027   
     length 3.55301   
     axis 180 30 90   XYZ
    dof rx
    limits (-10.0 170.0)
  end
  begin
     id 27 
     name rwrist
     direction -1 -4.48942e-011 -1.48958e-026   
     length 1.77651   
     axis 9.0955e-015 -90 -90   XYZ
    dof ry
    limits (-180.0 0.0)
  end
  begin
     id 28
     name rhand
     direction -1 -4.48977e-011 -2.97966e-026   
     length 0.772522   
     axis 1.90115e-014 -90 -90   XYZ
    dof rx rz
    limits (-90.0 90.0)
           (-45.0 45.0)
  end
  begin
     id 29
     name rfingers
     direction -1 -4.49135e-011 -5.96389e-026   
     length 0.622827   
     axis 3.80223e-014 -90 -90   XYZ
    dof rx
    limits (0.0 90.0)
  end
  begin
     id 30
     name rthumb
     direction -0.707107 -6.34969e-011 0.707107   
     length 0.894259   
     axis -90 -45 3.84942e-014   XYZ
    dof rx rz
    limits (-45.0 45.0)
           (-45.0 45.0)
  end
:hierarchy
  begin
    root lhipjoint rhipjoint lowerback
    lhipjoint lfemur
    lfemur ltibia
    ltibia lfoot
    lfoot ltoes
    rhipjoint rfemur
    rfemur rtibia
    rtibia rfoot
    rfoot rtoes
    lowerback upperback
    upperback thorax
    thorax lowerneck lclavicle rclavicle
    lowerneck upperneck
    upperneck head
    lclavicle lhumerus
    lhumerus lradius
    lradius lwrist
    lwrist lhand lthumb
    lhand lfingers
    rclavicle rhumerus
    rhumerus rradius
    rradius rwrist
    rwrist rhand rthumb
    rhand rfingers
  end

#!OML:ASF F:\VICON\USERDATA\INSTALL\rory3\rory3.ASF
:FULLY-SPECIFIED
:DEGREES
16
root -10.3195 18.1973 -14.5963 177.387 -9.23382 177.237
lowerback 11.0348 1.69462 -2.55009
upperback 2.17326 1.78423 0.257425
thorax -4.00327 0.835375 1.45391
lowerneck -8.0918 0.0414027 -12.2605
upperneck 41.8936 -7.32291 7.95988
head 17.4534 -6.03232 4.06015
rclavicle -8.64713e-015 3.97569e-016
rhumerus -27.9903 -15.2539 -79.1237
rradius 32.953
rwrist 5.90046
rhand -16.0567 4.67007
rfingers 7.12502
rthumb 10.1454 -25.0653
lclavicle -8.64713e-015 3.97569e-016
lhumerus -36.5711 8.95709 76.9859
lradius 28.4281
lwrist -8.22898
lhand -17.1621 26.4194
lfingers 7.12502
lthumb 9.07896 56.204
rfemur -9.3825 -9.25244 14.3281
rtibia 57.0326
rfoot -7.24928 -1.48051
rtoes -7.29019
lfemur -4.03751 -2.93843 -26.6559
ltibia 21.2269
lfoot 1.28108 -14.8784
ltoes 7.16041
17
root -10.2999 18.2025 -14.4787 177.403 -9.1246 177.818
lowerback 11.1432 1.7462 -2.0981
upperback 1.95784 1.92057 0.345004
thorax -4.28214 0.908748 1.2647
lowerneck -7.94279 -0.0372558 -11.8945
upperneck 41.6864 -7.2765 7.5673
head 17.2478 -5.97627 3.81748
rclavicle 1.39149e-015 1.98785e-015
rhumerus -27.7574 -15.0068 -79.2584
rradius 33.2237
rwrist 5.71315
rhand -16.1049 4.77975
rfingers 7.12502
rthumb 10.0989 -24.9579
lclavicle 1.39149e-015 1.98785e-015
lhumerus -37.0068 9.17654 76.4744
lradius 28.1908
lwrist -8.48855
lhand -17.1317 26.1466
lfingers 7.12502
lthumb 9.10823 55.93
rfemur -8.22856 -8.75068 15.2742
rtibia 56.6003
rfoot -6.85698 -0.69239
rtoes -10.9472
lfemur -4.83854 -2.73201 -25.9318
ltibia 21.5772
lfoot 1.58695 -15.0058
ltoes 11.5572
18
root -10.2883 18.206 -14.3669 177.435 -9.0531 178.223
lowerback 11.0738 1.82241 -1.70219
upperback 1.85226 2.08042 0.379544
thorax -4.34712 0.9877 1.05411
lowerneck -8.03791 -0.123583 -11.8778
upperneck 41.6612 -7.40276 7.65368
head 17.2838 -6.00389 3.83325
rclavicle 3.75455e-014 -1.51076e-014
rhumerus -27.4395 -14.8439 -79.3504
rradius 33.5628
rwrist 5.37094
rhand -16.1811 4.94107
rfingers 7.12502
rthumb 10.0255 -24.8001
lclavicle 3.75455e-014 -1.51076e-014
lhumerus -37.2453 9.22087 76.1388
lradius 27.8994
lwrist -8.51302
lhand -17.5445 26.0968
lfingers 7.12502
lthumb 8.70993 55.8971
rfemur -6.9547 -8.3236 15.9592
rtibia 56.0246
rfoot -6.47637 0.238891
rtoes -14.2092
lfemur -5.60762 -2.57275 -25.4502
ltibia 21.9914
lfoot 1.67662 -15.1685
ltoes 10.2246
19
root -10.2836 18.2095 -14.2682 177.424 -8.98838 178.481
lowerback 10.9154 1.9271 -1.43897
upperback 1.78248 2.26183 0.404116
thorax -4.32878 1.07748 0.908039
lowerneck -7.98848 -0.215894 -12.2832
upperneck 41.6841 -7.757 8.22664
head 17.3989 -6.16361 4.11557
rclavicle 4.39563e-014 -5.96354e-016
rhumerus -27.2071 -14.7543 -79.3569
rradius 34.0182
rwrist 5.15612
rhand -16.2955 4.9711
rfingers 7.12502
rthumb 9.91508 -24.7754
lclavicle 4.39563e-014 -5.96354e-016
lhumerus -37.4683 9.40434 75.8098
lradius 27.5126
lwrist -8.69928
lhand -17.772 26.0347
lfingers 7.12502
lthumb 8.49039 55.844
rfemur -5.54511 -7.93869 16.4111
rtibia 55.3246
rfoot -6.10301 1.2476
rtoes -16.1756
lfemur -6.18115 -2.48954 -25.1671
ltibia 22.3714
lfoot 1.76708 -15.26
ltoes 8.02856
20
root -10.2737 18.2106 -14.1703 177.39 -8.90755 178.756
lowerback 10.7903 2.07735 -1.19094
upperback 1.70966 2.49975 0.418832
thorax -4.33202 1.19509 0.751674
lowerneck -7.92447 -0.409574 -12.563
upperneck 41.5703 -8.17697 8.66421
head 17.4348 -6.32662 4.30048
rclavicle 2.01766e-014 -3.77691e-015
rhumerus -27.1562 -14.8663 -79.3286
rradius 34.6468
rwrist 5.07763
rhand -16.4297 5.16837
rfingers 7.12502
rthumb 9.78556 -24.5843
lclavicle 2.01766e-014 -3.77691e-015
lhumerus -37.6704 9.58346 75.4407
lradius 27.2056
lwrist -9.13082
lhand -17.3163 26.3743
lfingers 7.12502
lthumb 8.9301 56.1653
rfemur -4.07419 -7.46272 16.9559
rtibia 54.5089
rfoot -5.81568 2.14666
rtoes -17.4662
lfemur -6.67101 -2.31361 -24.8315
ltibia 22.6138
lfoot 1.7953 -15.5001
ltoes 7.68011
21
root -10.2639 18.2043 -14.0715 177.363 -8.84682 178.857
lowerback 10.6184 2.20341 -1.10096
upperback 1.70505 2.68139 0.391463
thorax -4.24034 1.28463 0.652369
lowerneck -8.28597 -0.585162 -12.3872
upperneck 41.6627 -8.30905 8.43522
head 17.5867 -6.35529 4.1353
rclavicle -1.19768e-014 -1.98785e-016
rhumerus -26.9968 -14.8336 -79.3581
rradius 35.2295
rwrist 4.89915
rhand -16.4732 5.37678
rfingers 7.12502
rthumb 9.74364 -24.3778
lclavicle -1.19768e-014 -1.98785e-016
lhumerus -37.8486 9.86965 75.0371
lradius 27.014
lwrist -9.53674
lhand -16.6192 26.9586
lfingers 7.12502
lthumb 9.60276 56.7198
rfemur -2.54005 -6.96653 17.3283
rtibia 53.5798
rfoot -5.44472 2.91702
rtoes -18.023
lfemur -7.10437 -2.15574 -24.6904
ltibia 22.7416
lfoot 1.99509 -15.7873
ltoes 8.03326
22
root -10.2554 18.2056 -13.9762 177.348 -8.72987 179.044
lowerback 10.3905 2.29949 -0.940408
upperback 1.6789 2.83464 0.389211
thorax -4.13654 1.36049 0.546216
lowerneck -8.46069 -0.64208 -12.0834
upperneck 41.68 -8.26996 8.15215
head 17.6015 -6.30395 3.95209
rclavicle -7.55382e-015 8.15017e-015
rhumerus -26.7151 -14.8003 -79.3935
rradius 35.5566
rwrist 4.79913
rhand -16.4344 5.48371
rfingers 7.12502
rthumb 9.7811 -24.2691
lclavicle -7.55382e-015 8.15017e-015
lhumerus -38.1397 10.1796 74.6445
lradius 26.9152
lwrist -9.67311
lhand -16.6572 27.169
lfingers 7.12502
lthumb 9.56606 56.9318
rfemur -1.15599 -6.32068 17.8485
rtibia 52.5256
rfoot -4.76515 3.60325
rtoes -17.3023
lfemur -7.57002 -2.00983 -24.4688
ltibia 22.8945
lfoot 1.98495 -15.9949
ltoes 6.54538
23
root -10.2449 18.2058 -13.8731 177.375 -8.64332 179.118
lowerback 10.328 2.3896 -0.911985
upperback 1.52267 2.96829 0.362631
thorax -4.26438 1.43164 0.482425
lowerneck -8.30294 -0.63818 -12.1002
upperneck 41.6961 -8.39552 8.31955
head 17.6031 -6.35741 4.01284
rclavicle 2.06488e-014 -3.77691e-015
rhumerus -26.6024 -14.6682 -79.4343
rradius 35.9357
rwrist 4.58481
rhand -16.5129 5.51496
rfingers 7.12502
rthumb 9.70533 -24.2414
lclavicle 2.06488e-014 -3.77691e-015
lhumerus -38.5892 10.2905 74.2991
lradius 26.9224
lwrist -9.5938
lhand -17.2067 26.9734
lfingers 7.12502
lthumb 9.03589 56.7599
rfemur 0.15651 -5.75164 18.2832
rtibia 51.3886
rfoot -4.11504 4.21065
rtoes -17.2428
lfemur -8.11137 -2.07683 -24.3749
ltibia 23.1009
lfoot 1.73436 -15.9965
ltoes 3.98821
24
root -10.2351 18.1999 -13.7679 177.373 -8.5244 179.318
lowerback 10.2232 2.50239 -0.734071
upperback 1.42652 3.14779 0.389733
thorax -4.3014 1.5215 0.387655
lowerneck -8.35504 -0.703142 -12.1861
upperneck 41.7702 -8.53755 8.41098
head 17.6986 -6.42498 4.04647
rclavicle 1.71203e-014 9.14409e-015
rhumerus -26.4407 -14.552 -79.431
rradius 36.4034
rwrist 4.2621
rhand -16.5048 5.6357
rfingers 7.12502
rthumb 9.71314 -24.1203
lclavicle 1.71203e-014 9.14409e-015
lhumerus -38.8461 10.511 73.9882
lradius 26.8293
lwrist -9.67098
lhand -17.4552 26.9129
lfingers 7.12502
lthumb 8.79611 56.7096
rfemur 1.54281 -5.22377 18.868
rtibia 50.1836
rfoot -3.65153 4.67555
rtoes -17.8778
lfemur -8.65108 -2.21945 -24.1416
ltibia 23.3275
lfoot 1.71161 -15.8539
ltoes 3.46581
25
root -10.2235 18.1936 -13.6627 177.347 -8.28122 179.695
lowerback 10.0919 2.64732 -0.377592
upperback 1.34841 3.39022 0.464999
thorax -4.29718 1.63917 0.236518
lowerneck -8.43817 -0.742785 -12.2463
upperneck 41.8528 -8.60584 8.45227
head 17.7899 -6.46013 4.06518
rclavicle -6.20581e-014 1.78906e-015
rhumerus -26.3021 -14.5313 -79.4055
rradius 36.9055
rwrist 4.0815
rhand -16.5121 5.66512
rfingers 7.12502
rthumb 9.70614 -24.0912
lclavicle -6.20581e-014 1.78906e-015
lhumerus -38.9808 10.8815 73.6363
lradius 26.5498
lwrist -9.75375
lhand -17.5007 26.7975
lfingers 7.12502
lthumb 8.7522 56.5961
rfemur 2.86243 -4.50471 19.7244
rtibia 48.9527
rfoot -3.46423 4.77817
rtoes -18.8123
lfemur -9.18207 -2.22686 -23.6949
ltibia 23.5424
lfoot 1.78324 -15.7116
ltoes 3.48047
26
root -10.212 18.188 -13.5526 177.395 -8.00972 179.988
lowerback 9.93267 2.80913 -0.0778173
upperback 1.26296 3.64722 0.507893
thorax -4.28422 1.76488 0.0836747
lowerneck -8.11691 -0.773337 -12.1995
upperneck 41.4992 -8.56637 8.48823
head 17.4883 -6.40493 4.08422
rclavicle 4.17448e-015 -4.96962e-015
rhumerus -26.081 -14.6028 -79.3649
rradius 37.2333
rwrist 3.97543
rhand -16.4519 5.6582
rfingers 7.12502
rthumb 9.76418 -24.0954
lclavicle 4.17448e-015 -4.96962e-015
lhumerus -39.0653 11.1563 73.3452
lradius 26.2293
lwrist -9.80832
lhand -17.9184 26.1062
lfingers 7.12502
lthumb 8.34907 55.9212
rfemur 4.02328 -3.82959 20.4629
rtibia 47.7032
rfoot -3.27742 4.8091
rtoes -18.7171
lfemur -9.80271 -2.23639 -23.3338
ltibia 23.8029
lfoot 1.83267 -15.5375
ltoes 3.78457
